<svg width="72" height="72" viewBox="0 0 72 72" fill="none" xmlns="http://www.w3.org/2000/svg">
<g filter="url(#filter0_b_715_15103)">
<circle cx="36" cy="36" r="36" fill="white" fill-opacity="0.5"/>
<circle cx="36" cy="36" r="35.5" stroke="#388CFC"/>
</g>
<path d="M32.4717 31.9842C33.2183 33.4701 34.3744 34.4452 35.675 35.0488C37.3248 35.815 39.1673 36.082 40.8171 36.4186C42.4669 36.7553 43.8638 37.1499 44.7188 37.9393C45.5618 38.7287 46.0314 39.9592 45.6581 42.4318C44.9476 47.052 43.057 51.3471 40.6364 54.4466C38.2039 57.5461 35.2655 59.3918 32.4476 59.3918C30.9905 59.3918 29.2444 58.498 27.5344 56.954C25.8243 55.4101 24.1625 53.2509 22.8017 50.906C21.4409 48.5727 20.3812 46.042 19.8393 43.7784C19.4539 42.1416 19.3576 40.6441 19.5503 39.4716C20.044 38.1018 20.9592 37.2196 22.1514 36.5347C23.3557 35.8382 24.8489 35.3622 26.3783 34.9095C27.8956 34.4568 29.437 34.0273 30.7617 33.2959C31.4 32.9477 31.99 32.5182 32.4717 31.9842ZM46.2843 30.0804C47.9221 30.1384 50.3305 31.0091 52.4139 32.077L51.8479 33.7138C50.3546 33.354 48.9095 33.2959 47.7294 33.6674C46.4649 34.0737 45.4534 34.9559 44.6225 36.198C43.5989 35.6292 42.4187 35.3506 41.2145 35.1068C42.4308 33.0521 44.1408 31.2528 46.2843 30.0804ZM39.0228 24.1252C39.6731 24.16 40.3113 24.4154 40.9495 24.8798C40.0464 25.1468 39.4804 25.2396 39.0469 25.1235C38.6976 25.0423 38.3364 24.7985 37.8547 24.2877C38.228 24.16 38.6254 24.102 39.0228 24.1252ZM51.9563 23.8466L52.0285 27.0041C46.0676 27.6078 42.0334 30.684 39.7694 34.8166C38.529 34.5729 37.3127 34.2943 36.3012 33.8183C34.9765 33.2031 33.965 32.2976 33.411 30.5563C34.0493 28.2462 34.9765 26.2147 36.5902 24.9494C37.2646 25.7272 37.9149 26.238 38.6735 26.4353C39.5767 26.6675 40.4558 26.4469 41.5155 26.1219C43.4784 25.5182 46.6817 24.4503 51.9563 23.8466ZM27.8956 23.1153C26.4144 25.6343 25.6798 29.0704 27.2694 33.1914C26.8359 33.3307 26.4144 33.4701 25.9568 33.5977C24.4274 34.0505 22.8378 34.538 21.4289 35.3506C21.0796 35.5596 20.7425 35.7801 20.4173 36.0355C20.3571 35.4435 20.1163 34.8515 19.9356 34.3755C19.6105 33.3772 19.3576 32.0654 20.5859 28.6177C21.6456 25.6459 24.2227 23.5564 27.8956 23.1153ZM28.3894 14.8268C29.2444 16.4984 29.6899 18.9478 29.6297 20.7936C29.3648 21.0722 29.0999 21.374 28.847 21.6874C28.1124 21.6758 27.2815 21.8035 26.6432 21.9428C26.8359 19.9462 26.8118 17.4736 26.5469 15.3376L28.3894 14.8268ZM36.4577 11.53L37.3248 17.8682C37.4211 18.5531 38.3966 18.6808 38.6735 18.0424L41.2988 11.8899L43.069 12.4239L41.8407 18.5067C41.7082 19.18 42.5873 19.5979 43.057 19.0871L46.7058 15.0822L47.9221 16.1386L45.1162 20.2944C44.9356 20.5614 44.9717 20.9097 45.2005 21.1418C45.6702 21.6178 46.1639 22.5349 46.477 23.2546C44.8151 23.6261 43.5146 24.0324 42.4789 24.369C41.6841 23.6261 40.7689 23.1153 39.8416 22.9063C38.806 22.6742 37.7463 22.767 36.7468 23.2314C34.7598 24.1484 33.2545 26.2496 32.2429 29.5696C31.6769 31.4502 30.2078 32.1002 28.582 32.7503C27.0045 28.7106 27.8595 25.6227 29.3648 23.3474C30.9303 20.9793 33.3267 19.505 34.2058 19.1684C34.4828 19.0639 34.6634 18.8085 34.6514 18.5183L34.543 11.6461L36.4577 11.53ZM37.0478 10.1254L33.8084 10.3111C33.4351 10.3343 33.1341 10.6245 33.1341 10.996L33.2183 18.1352C32.5921 18.4138 31.8214 18.8782 31.0266 19.505C30.8942 17.52 30.3643 15.3144 29.3648 13.7008C29.136 13.3293 28.8711 13.3061 28.57 13.3758L25.5835 14.1535C25.2463 14.2464 25.0175 14.5598 25.0657 14.9081C25.4149 17.2414 25.451 20.2596 25.1861 22.3607C22.32 23.3823 20.2006 25.4834 19.2372 28.1882C17.9607 31.7984 18.1895 33.6094 18.5748 34.7934C18.7675 35.3855 18.9481 35.7685 18.9963 36.14C19.0445 36.5115 18.9963 36.9178 18.635 37.6839C18.4062 38.1599 18.2497 38.6939 18.0691 39.7038C17.9005 40.7137 18.045 42.3505 18.4544 44.0802C19.0324 46.518 20.1283 49.1415 21.5493 51.5793C22.9703 54.0171 24.7044 56.2807 26.5589 57.9524C28.4134 59.624 30.4125 60.75 32.4356 60.75C35.8797 60.75 39.1552 58.5676 41.7564 55.2592C44.3455 51.9508 46.2964 47.4699 47.043 42.6291C47.4524 39.9708 46.9226 38.1715 45.7665 37.0339C46.477 35.9194 47.2477 35.2578 48.187 34.9559C49.1745 34.6309 50.4389 34.7006 52.1008 35.2113C52.4741 35.3274 52.8715 35.1301 52.9919 34.7702L53.9673 31.8681C54.0637 31.5663 53.9433 31.2296 53.6542 31.0671C52.0646 30.1848 50.3065 29.4767 48.6567 29.0704C49.9091 28.6641 51.2939 28.3971 52.8233 28.3043C53.1966 28.2811 53.4977 27.9676 53.4856 27.6078L53.3411 22.9876C53.3291 22.5929 52.9799 22.2911 52.5704 22.3259C50.7882 22.4884 49.2467 22.7206 47.91 22.9644C47.6451 22.2679 47.2236 21.3508 46.6576 20.6195L49.4515 16.394C49.6441 16.1154 49.5839 15.7323 49.331 15.5117L47.1273 13.5963C46.8262 13.3525 46.3806 13.3758 46.1278 13.6544L43.7434 16.2895L44.5984 12.0872C44.6706 11.739 44.4539 11.4139 44.1046 11.3094L41.1061 10.404C40.7569 10.2995 40.3715 10.462 40.239 10.7987L38.3845 15.1519L37.7824 10.729C37.7342 10.3692 37.4091 10.1138 37.0478 10.1254Z" fill="#388CFC" stroke="#388CFC" stroke-width="0.5"/>
<defs>
<filter id="filter0_b_715_15103" x="-4" y="-4" width="80" height="80" filterUnits="userSpaceOnUse" color-interpolation-filters="sRGB">
<feFlood flood-opacity="0" result="BackgroundImageFix"/>
<feGaussianBlur in="BackgroundImage" stdDeviation="2"/>
<feComposite in2="SourceAlpha" operator="in" result="effect1_backgroundBlur_715_15103"/>
<feBlend mode="normal" in="SourceGraphic" in2="effect1_backgroundBlur_715_15103" result="shape"/>
</filter>
</defs>
</svg>
