<svg width="52" height="52" viewBox="0 0 52 52" fill="none" xmlns="http://www.w3.org/2000/svg">
<g filter="url(#filter0_b_715_15119)">
<circle cx="26" cy="26" r="26" fill="#388CFC" fill-opacity="0.5"/>
<circle cx="26" cy="26" r="25.5" stroke="white"/>
</g>
<path d="M25.2988 15.0001H20.442C18.3626 14.9933 16.3249 15.6034 14.6083 16.749C12.4102 18.22 9.8213 21.0265 10.0097 26.0022V34.8554C10.0097 36.4485 11.2867 37.75 12.8568 37.75C13.7291 37.75 14.5455 37.35 15.0758 36.6722C15.7737 35.7977 16.5273 34.9774 17.3437 34.2046C18.6975 34.7605 20.2397 34.6182 21.4609 33.8318C22.682 33.0455 23.4217 31.7236 23.4287 30.3C23.645 30.2254 23.8544 30.1576 24.0777 30.0966C26.9178 29.3035 28.9484 26.6869 29.0182 23.7245V18.7827C29.0252 16.6948 27.3574 15.0001 25.2988 15.0001ZM28.2925 23.4737V23.7109C28.2297 26.3615 26.4153 28.7137 23.8823 29.4187C23.7148 29.4662 23.5403 29.5204 23.3798 29.5747C23.2612 29.6153 23.1496 29.6492 23.0309 29.6899C22.9123 29.7306 22.7937 29.778 22.682 29.8187C20.5328 30.6593 18.6696 32.0286 17.2251 33.3437C17.1344 33.4318 17.0367 33.5132 16.953 33.6013C16.8623 33.6894 16.7715 33.7708 16.6878 33.8521C15.9132 34.5978 15.1805 35.3909 14.5106 36.2315C14.1198 36.7332 13.5127 37.0314 12.8708 37.0314C11.6984 37.0314 10.7494 36.0553 10.7494 34.8486V25.9819C10.5749 21.318 12.9824 18.7013 15.034 17.3252C16.625 16.2609 18.5161 15.6983 20.456 15.7051H25.3128C26.9666 15.7051 28.3064 17.088 28.3064 18.7827L28.2925 23.4737Z" fill="white"/>
<path d="M40.2111 15.0001H32.3817C31.1675 15.0001 30.1766 15.9084 30.1766 17.0202V24.8294C30.1766 25.4531 30.4906 26.0429 31.007 26.4089C31.4047 26.7004 31.8862 26.8563 32.3817 26.8563C32.598 26.8563 32.8073 26.8292 33.0167 26.7682C34.503 26.3547 36.4499 25.3175 37.2664 22.728C37.3501 22.5314 38.5294 19.8131 40.9369 19.0945C41.8719 18.8166 42.5 18.0167 42.5 17.1015C42.5069 15.9423 41.4742 15.0001 40.2111 15.0001ZM36.5755 22.5043C35.9963 24.3481 34.7333 25.5548 32.8143 26.0903C32.3468 26.2191 31.8374 26.131 31.4466 25.8531C31.1116 25.6158 30.9162 25.2362 30.9093 24.8362V17.0202C30.9093 16.2948 31.5722 15.7051 32.3886 15.7051H40.2111C41.0764 15.7051 41.7742 16.3287 41.7742 17.1015C41.7742 17.6981 41.3486 18.2268 40.7205 18.4166C37.9014 19.2572 36.6313 22.3484 36.5825 22.4772L36.5755 22.5043Z" fill="white"/>
<path d="M25.2988 15.0001H20.442C18.3626 14.9933 16.3249 15.6034 14.6083 16.749C12.4102 18.22 9.8213 21.0265 10.0097 26.0022V34.8554C10.0097 36.4485 11.2867 37.75 12.8568 37.75C13.7291 37.75 14.5455 37.35 15.0758 36.6722C15.7737 35.7977 16.5273 34.9774 17.3437 34.2046C18.6975 34.7605 20.2397 34.6182 21.4609 33.8318C22.682 33.0455 23.4217 31.7236 23.4287 30.3C23.645 30.2254 23.8544 30.1576 24.0777 30.0966C26.9178 29.3035 28.9484 26.6869 29.0182 23.7245V18.7827C29.0252 16.6948 27.3574 15.0001 25.2988 15.0001ZM28.2925 23.4737V23.7109C28.2297 26.3615 26.4153 28.7137 23.8823 29.4187C23.7148 29.4662 23.5403 29.5204 23.3798 29.5747C23.2612 29.6153 23.1496 29.6492 23.0309 29.6899C22.9123 29.7306 22.7937 29.778 22.682 29.8187C20.5328 30.6593 18.6696 32.0286 17.2251 33.3437C17.1344 33.4318 17.0367 33.5132 16.953 33.6013C16.8623 33.6894 16.7715 33.7708 16.6878 33.8521C15.9132 34.5978 15.1805 35.3909 14.5106 36.2315C14.1198 36.7332 13.5127 37.0314 12.8708 37.0314C11.6984 37.0314 10.7494 36.0553 10.7494 34.8486V25.9819C10.5749 21.318 12.9824 18.7013 15.034 17.3252C16.625 16.2609 18.5161 15.6983 20.456 15.7051H25.3128C26.9666 15.7051 28.3064 17.088 28.3064 18.7827L28.2925 23.4737Z" stroke="white" stroke-width="0.5"/>
<path d="M40.2111 15.0001H32.3817C31.1675 15.0001 30.1766 15.9084 30.1766 17.0202V24.8294C30.1766 25.4531 30.4906 26.0429 31.007 26.4089C31.4047 26.7004 31.8862 26.8563 32.3817 26.8563C32.598 26.8563 32.8073 26.8292 33.0167 26.7682C34.503 26.3547 36.4499 25.3175 37.2664 22.728C37.3501 22.5314 38.5294 19.8131 40.9369 19.0945C41.8719 18.8166 42.5 18.0167 42.5 17.1015C42.5069 15.9423 41.4742 15.0001 40.2111 15.0001ZM36.5755 22.5043C35.9963 24.3481 34.7333 25.5548 32.8143 26.0903C32.3468 26.2191 31.8374 26.131 31.4466 25.8531C31.1116 25.6158 30.9162 25.2362 30.9093 24.8362V17.0202C30.9093 16.2948 31.5722 15.7051 32.3886 15.7051H40.2111C41.0764 15.7051 41.7742 16.3287 41.7742 17.1015C41.7742 17.6981 41.3486 18.2268 40.7205 18.4166C37.9014 19.2572 36.6313 22.3484 36.5825 22.4772L36.5755 22.5043Z" stroke="white" stroke-width="0.5"/>
<defs>
<filter id="filter0_b_715_15119" x="-4" y="-4" width="60" height="60" filterUnits="userSpaceOnUse" color-interpolation-filters="sRGB">
<feFlood flood-opacity="0" result="BackgroundImageFix"/>
<feGaussianBlur in="BackgroundImage" stdDeviation="2"/>
<feComposite in2="SourceAlpha" operator="in" result="effect1_backgroundBlur_715_15119"/>
<feBlend mode="normal" in="SourceGraphic" in2="effect1_backgroundBlur_715_15119" result="shape"/>
</filter>
</defs>
</svg>