<svg width="24" height="23" viewBox="0 0 24 23" fill="none" xmlns="http://www.w3.org/2000/svg">
<path fill-rule="evenodd" clip-rule="evenodd" d="M5.49053 5.38798L6.67758 13.5223C6.73391 13.8659 6.9106 14.1812 7.17547 14.4083C7.44481 14.6391 7.78186 14.7632 8.1263 14.7632H19.3234C19.6604 14.7632 19.9894 14.6468 20.2509 14.4364C20.5136 14.2202 20.6907 13.9244 20.7555 13.6025L22.4055 5.38798H5.93013H5.49053ZM22.226 13.8987C22.0914 14.5667 21.7262 15.1675 21.1976 15.6C20.669 16.0277 20.0058 16.2632 19.3234 16.2632H8.1263C7.41987 16.2632 6.73747 16.0085 6.19925 15.5471C5.66102 15.0858 5.3054 14.4466 5.19487 13.7497L3.53693 2.38854C3.52252 2.25397 3.40238 2.15305 3.26782 2.15305H1.07646C0.692009 2.15305 0.336393 1.94639 0.144169 1.61479C-0.0480562 1.28318 -0.0480562 0.86987 0.144169 0.538262C0.336393 0.206654 0.692009 0 1.07646 0H3.26301C3.8493 0 4.41156 0.21146 4.85367 0.595933C5.29098 0.9756 5.57932 1.50906 5.66102 2.08576L5.93013 3.88798H22.9228C23.2448 3.88798 23.5475 4.03216 23.7542 4.27726C23.956 4.52717 24.0425 4.84916 23.98 5.16635L22.226 13.8987ZM18.1748 17.2727C17.4347 17.2727 16.7235 17.5658 16.1997 18.0897C15.6759 18.6135 15.3827 19.3248 15.3827 20.0649C15.3827 20.805 15.6759 21.5163 16.1997 22.0401C16.7235 22.564 17.4347 22.8571 18.1748 22.8571C18.9149 22.8571 19.6261 22.564 20.1499 22.0401C20.6737 21.5163 20.9669 20.805 20.9669 20.0649C20.9669 19.3248 20.6737 18.6183 20.1499 18.0945C19.6261 17.5658 18.9149 17.2727 18.1748 17.2727ZM6.20888 18.7188C6.67983 17.8586 7.56887 17.3107 8.54441 17.2723C9.52475 17.2674 10.4378 17.7817 10.9424 18.6275C11.4518 19.4734 11.4758 20.521 11.0097 21.3861C10.5435 22.2512 9.6545 22.8087 8.67416 22.8519H8.60688C7.63134 22.8375 6.73269 22.3088 6.24252 21.463C5.75234 20.6172 5.73793 19.5743 6.20888 18.7188Z" fill="#17375C" fill-opacity="0.5"/>
</svg>
