<svg width="25" height="26" viewBox="0 0 25 26" fill="none" xmlns="http://www.w3.org/2000/svg">
<path d="M23.6761 9.33262C23.5904 8.7558 23.0681 8.32709 22.4524 8.32709C22.3978 8.32709 22.3432 8.32709 22.2887 8.33489C19.9658 8.6155 14.7434 9.16113 12.6154 9.16113C10.9707 9.16113 5.07788 8.51417 2.6771 8.3115C2.59916 8.30371 2.52121 8.30371 2.44326 8.30371C1.66379 8.30371 1.08698 8.66227 1.00903 9.20011C0.938876 9.66 1.26625 10.268 2.3887 10.611C2.9733 10.7902 3.72939 10.9851 4.53225 11.1956C6.18473 11.6243 8.06327 12.1075 9.18571 12.6376C9.48191 12.7779 9.55986 13.1988 9.44293 13.4872C8.43741 16.0361 4.95317 23.5346 4.91419 23.6126L4.9064 23.6204L4.8986 23.6282C4.79727 23.9244 4.83625 24.2284 5.01552 24.4778C5.24157 24.7974 5.67808 25 6.12238 25C6.5355 25 6.90965 24.8208 7.13569 24.5168C7.93855 23.4333 8.92848 22.0536 9.88724 20.7285C10.807 19.458 11.6722 18.2576 12.1945 17.5561C12.2724 17.4547 12.4127 17.3924 12.5842 17.3924C12.7635 17.3924 12.9428 17.4625 13.0441 17.5717C14.3302 18.9825 16.2322 21.3443 17.6196 23.0669C18.0249 23.5736 18.4069 24.0491 18.7265 24.431C19.0227 24.7896 19.3968 24.9922 19.7866 24.9922C20.1529 24.9922 20.4959 24.813 20.7141 24.5168C20.9324 24.2128 20.9791 23.8386 20.8622 23.4723L20.8544 23.4489L20.8466 23.4255C20.8077 23.3554 16.5829 16.0205 15.4605 13.4638C15.3202 13.152 15.4449 12.7467 15.7177 12.622C16.9181 12.0608 18.8668 11.5697 20.5894 11.1332C21.3689 10.9383 22.1016 10.7513 22.6784 10.5798C23.5124 10.3537 23.7385 9.78471 23.6761 9.33262Z" stroke="#17375C" stroke-opacity="0.5" stroke-width="1.5"/>
<path d="M12.2988 7C13.9557 7 15.2988 5.65685 15.2988 4C15.2988 2.34314 13.9557 1 12.2988 1C10.642 1 9.29883 2.34314 9.29883 4C9.29883 5.65685 10.642 7 12.2988 7Z" stroke="#17375C" stroke-opacity="0.5" stroke-width="1.5"/>
</svg>
