<svg width="26" height="24" viewBox="0 0 26 24" fill="none" xmlns="http://www.w3.org/2000/svg">
<path fill-rule="evenodd" clip-rule="evenodd" d="M3.9933 1.2002C3.38826 1.2002 2.83953 1.56622 2.60755 2.125L1.17884 6.33791C0.819475 7.38465 0.996194 8.49417 1.75892 9.31058C2.09211 9.66723 2.52278 9.9317 3.00013 10.0762V21.2003C3.00013 22.2996 3.90079 23.2003 5.00014 23.2003H8.00015C9.0988 23.2003 10.0002 22.2989 10.0002 21.2003V14.2002C10.0002 13.642 10.442 13.2002 11.0002 13.2002H15.0002C15.5584 13.2002 16.0002 13.642 16.0002 14.2002V21.2003C16.0002 22.2989 16.9015 23.2003 18.0002 23.2003H21.007C22.1064 23.2003 23.007 22.2996 23.007 21.2003V10.0577C23.5146 9.90231 23.9777 9.61109 24.3342 9.18558C25.0019 8.38865 25.1926 7.27998 24.7912 6.30959L23.3967 2.14063C23.1649 1.58193 22.6082 1.2002 22.0031 1.2002H3.9933ZM3.9933 2.2002H22.0031C22.2062 2.2002 22.3845 2.32057 22.4631 2.50586L23.8674 6.69143C24.1228 7.30904 24.0031 8.02319 23.5676 8.543C23.1316 9.06337 22.4874 9.28186 21.7951 9.15628C21.1637 9.04174 20.4553 8.26175 20.4553 7.70022C20.4551 7.52173 20.3599 7.35685 20.2053 7.2676C20.0506 7.17829 19.86 7.17829 19.7053 7.2676C19.5507 7.35685 19.4554 7.52173 19.4553 7.70022C19.4553 7.97981 19.2908 8.33037 18.9631 8.63284C18.6266 8.94339 18.1334 9.18216 17.676 9.2012C16.7687 9.239 15.801 8.43189 15.801 7.70022C15.8008 7.52173 15.7055 7.35685 15.551 7.2676C15.3963 7.17829 15.2057 7.17829 15.051 7.2676C14.8964 7.35685 14.8011 7.52173 14.801 7.70022C14.801 8.417 13.8571 9.20128 13.0021 9.20023C12.1176 9.19873 11.1955 8.33385 11.1955 7.70022C11.1953 7.52173 11.1001 7.35685 10.9455 7.2676C10.7908 7.17829 10.6002 7.17829 10.4455 7.2676C10.2909 7.35685 10.1956 7.52173 10.1955 7.70022C10.1955 8.28808 9.21474 9.19235 8.39468 9.20023C7.94073 9.20473 7.42136 8.97752 7.06558 8.66311C6.80051 8.42887 6.61946 8.17656 6.57827 7.9385C6.56442 7.85837 6.56084 7.8003 6.56069 7.70413C6.55919 7.52703 6.46407 7.36005 6.31069 7.27151C6.15599 7.18219 5.96539 7.18219 5.81069 7.27151C5.65611 7.36075 5.56083 7.52564 5.56069 7.70413C5.56069 8.30742 4.83481 9.01866 4.21498 9.15628C3.55594 9.3026 2.89578 9.06295 2.48939 8.62796C1.96253 8.06402 1.85897 7.43837 2.12513 6.66311L3.53236 2.50684C3.61047 2.31999 3.78947 2.2002 3.9933 2.2002ZM10.6808 8.94144C11.1854 9.69052 12.04 10.1989 13.0002 10.2002C13.9408 10.2017 14.7971 9.70727 15.3098 8.97562C15.8422 9.73925 16.7324 10.2412 17.717 10.2002C18.4499 10.1697 19.1344 9.83554 19.6418 9.36722C19.7502 9.26718 19.8471 9.1549 19.9387 9.03909C20.3319 9.59674 20.914 10.0132 21.6164 10.1407C21.7465 10.1643 21.8771 10.1792 22.007 10.1856V21.2003C22.007 21.7629 21.5697 22.2003 21.007 22.2003H18.0002C17.442 22.2003 17.0002 21.7585 17.0002 21.2003V14.2002C17.0002 13.1016 16.0988 12.2002 15.0002 12.2002H11.0002C9.90151 12.2002 9.00016 13.1016 9.00016 14.2002V21.2003C9.00016 21.7585 8.55836 22.2003 8.00015 22.2003H5.00014C4.43749 22.2003 4.00014 21.7629 4.00014 21.2003V10.1914C4.14305 10.1821 4.28657 10.1649 4.4308 10.1328C5.0632 9.99244 5.62487 9.61781 6.0353 9.01956C6.14477 9.16237 6.26918 9.29445 6.40347 9.41312C6.93845 9.88588 7.6543 10.2075 8.40445 10.2002C9.34548 10.1912 10.1713 9.67725 10.6808 8.94144Z" fill="#17375C" fill-opacity="0.5" stroke="#17375C" stroke-opacity="0.5" stroke-width="0.4"/>
</svg>
