<svg width="15" height="15" viewBox="0 0 15 15" fill="none" xmlns="http://www.w3.org/2000/svg">
<path d="M14.3994 2.71843H10.0685V2.21264C10.0685 1.0904 9.15174 0.189453 8.04531 0.189453H6.9863C5.86407 0.189453 4.96312 1.10621 4.96312 2.21264V2.71843H0.616438C0.28451 2.71843 0 2.98713 0 3.33487C0 3.6826 0.268704 3.95131 0.616438 3.95131H1.46997L2.22866 13.0872C2.30769 14.0988 3.17703 14.8891 4.18862 14.8891H10.8114C11.823 14.8891 12.6923 14.0988 12.7713 13.0872L13.53 3.95131H14.3836C14.7155 3.95131 15 3.6826 15 3.33487C15 2.98713 14.7471 2.71843 14.3994 2.71843ZM6.18019 2.21264C6.18019 1.77006 6.54373 1.42233 6.9863 1.42233H8.04531C8.48788 1.42233 8.85142 1.78587 8.85142 2.21264V2.71843H6.18019V2.21264ZM11.5543 12.9766C11.5227 13.3559 11.1907 13.6563 10.8114 13.6563H4.20443C3.82508 13.6563 3.49315 13.3559 3.46154 12.9766L2.70285 3.95131H12.2972L11.5543 12.9766Z" fill="#17375C"/>
<path d="M5.88011 12.1389C6.21204 12.1389 6.49655 11.8702 6.49655 11.5225V6.08519C6.49655 5.75326 6.22784 5.46875 5.88011 5.46875C5.54818 5.46875 5.26367 5.73745 5.26367 6.08519V11.5383C5.26367 11.8702 5.53238 12.1389 5.88011 12.1389Z" fill="#17375C"/>
<path d="M9.13597 12.1389C9.4679 12.1389 9.75241 11.8702 9.75241 11.5225V6.08519C9.75241 5.75326 9.4837 5.46875 9.13597 5.46875C8.80404 5.46875 8.51953 5.73745 8.51953 6.08519V11.5383C8.53534 11.8702 8.80404 12.1389 9.13597 12.1389Z" fill="#17375C"/>
</svg>
